<svg width="14" height="14" viewBox="0 0 14 14" fill="none" xmlns="http://www.w3.org/2000/svg">
<path id="academiconsGoogleScholar1" d="M12.5329 1.55539V0.562552L13.2535 0H5.45547L0.746582 4.09332H3.86946C3.86393 4.16885 3.86127 4.24455 3.86147 4.32028C3.86147 5.08025 4.1247 5.70886 4.6516 6.21104C5.17853 6.71406 5.82745 6.96383 6.59581 6.96383C6.7753 6.96383 6.95128 6.95042 7.1222 6.9265C7.01621 7.16348 6.96273 7.38307 6.96273 7.58793C6.96273 7.94795 7.12675 8.33277 7.45371 8.74154C6.02331 8.83889 4.97232 9.09635 4.30236 9.51311C3.91842 9.75009 3.60965 10.0492 3.37669 10.4075C3.14368 10.7684 3.02749 11.1554 3.02749 11.5728C3.02749 11.9245 3.10267 12.2412 3.25422 12.5229C3.40574 12.8046 3.60342 13.0359 3.84893 13.2151C4.09386 13.3962 4.37645 13.5469 4.69546 13.6697C5.01388 13.7916 5.33005 13.8781 5.6456 13.9271C5.95565 13.9755 6.26898 13.9999 6.5828 14C7.07385 14 7.56546 13.9368 8.06107 13.8109C8.55552 13.6838 9.0192 13.4958 9.45272 13.246C9.88512 12.9979 10.2371 12.6596 10.5072 12.2355C10.7766 11.8097 10.9116 11.3311 10.9116 10.8014C10.9116 10.3997 10.8296 10.0343 10.6655 9.70251C10.5026 9.37172 10.3032 9.09942 10.0657 8.88785C9.82872 8.67592 9.59177 8.48116 9.35421 8.30568C9.11723 8.12904 8.91671 7.95021 8.75382 7.76562C8.5903 7.58166 8.50827 7.39907 8.50827 7.21933C8.50827 7.03992 8.57149 6.86671 8.69844 6.69926C8.8244 6.53118 8.97822 6.36938 9.15818 6.21414C9.33817 6.05919 9.5182 5.88718 9.69761 5.69887C9.87706 5.51122 10.0309 5.26768 10.1574 4.96942C10.2844 4.67119 10.347 4.3334 10.347 3.95744C10.347 3.46697 10.2542 3.06567 10.0719 2.74287C10.0502 2.70561 10.0275 2.67714 10.0035 2.63269L12.0783 0.931109V1.55524C11.8087 1.58915 11.8368 1.75011 11.8368 1.94297V6.63396C11.8368 6.85118 12.0145 7.02895 12.2318 7.02895H12.3772C12.5944 7.02895 12.7721 6.85121 12.7721 6.63396V1.94297C12.7721 1.75058 12.8005 1.58973 12.5329 1.55539ZM8.61877 9.66663C8.66034 9.69398 8.75382 9.76799 8.90016 9.88677C9.04782 10.005 9.14797 10.0944 9.20152 10.1571C9.28003 10.2479 9.35752 10.3396 9.43398 10.4322C9.53654 10.5553 9.60599 10.6621 9.64245 10.7507C9.67891 10.841 9.71595 10.9497 9.75354 11.0768C9.78947 11.202 9.8077 11.3316 9.80768 11.4619C9.80768 12.0834 9.56837 12.544 9.09106 12.8422C8.61254 13.1404 8.04226 13.2896 7.37977 13.2896C7.04483 13.2896 6.71612 13.2498 6.3931 13.1731C6.0707 13.096 5.76197 12.9786 5.46743 12.8231C5.17292 12.6678 4.93597 12.4511 4.75649 12.1742C4.57646 11.8957 4.48644 11.5758 4.48644 11.2172C4.48644 10.841 4.58842 10.5139 4.79349 10.2363C4.99744 9.95827 5.26519 9.74805 5.59674 9.60498C5.92717 9.46112 6.26211 9.35918 6.60161 9.29881C6.94369 9.2365 7.29071 9.20532 7.63841 9.20566C7.80138 9.20566 7.92774 9.21477 8.01776 9.23103C8.03435 9.23902 8.1283 9.3065 8.29976 9.43385C8.47126 9.56007 8.57776 9.63783 8.61877 9.6666V9.66663ZM8.49631 5.99969C8.2263 6.32271 7.84976 6.48415 7.36782 6.48415C6.93542 6.48415 6.55487 6.31046 6.22791 5.96236C5.89979 5.61517 5.66565 5.22123 5.52266 4.78001C5.37912 4.33854 5.30734 3.9056 5.30734 3.48035C5.30734 2.98109 5.43844 2.55606 5.70039 2.20518C5.96242 1.85336 6.33842 1.67708 6.82834 1.67708C7.26128 1.67708 7.64406 1.86076 7.97448 2.22968C8.30604 2.59736 8.5436 3.01036 8.68604 3.4681C8.82903 3.92529 8.90016 4.36242 8.90016 4.78001C8.90016 5.27023 8.76519 5.67726 8.49635 5.99969H8.49631Z" fill="#FFFDFE"/>
</svg>
