<svg width="239" height="153" viewBox="0 0 239 153" fill="none" xmlns="http://www.w3.org/2000/svg">
<rect width="238" height="153" transform="translate(0.5)" fill="#551D3B"/>
<path d="M143.5 40.5H95.5C92.2 40.5 89.5 43.2 89.5 46.5V106.5C89.5 109.8 92.2 112.5 95.5 112.5H143.5C146.8 112.5 149.5 109.8 149.5 106.5V46.5C149.5 43.2 146.8 40.5 143.5 40.5ZM107.5 100.5C107.5 102.15 106.15 103.5 104.5 103.5H98.5C96.85 103.5 95.5 102.15 95.5 100.5V99C95.5 97.35 96.85 96 98.5 96H104.5C106.15 96 107.5 97.35 107.5 99V100.5ZM107.5 88.5C107.5 90.15 106.15 91.5 104.5 91.5H98.5C96.85 91.5 95.5 90.15 95.5 88.5V87C95.5 85.35 96.85 84 98.5 84H104.5C106.15 84 107.5 85.35 107.5 87V88.5ZM107.5 76.5C107.5 78.15 106.15 79.5 104.5 79.5H98.5C96.85 79.5 95.5 78.15 95.5 76.5V75C95.5 73.35 96.85 72 98.5 72H104.5C106.15 72 107.5 73.35 107.5 75V76.5ZM125.5 100.5C125.5 102.15 124.15 103.5 122.5 103.5H116.5C114.85 103.5 113.5 102.15 113.5 100.5V99C113.5 97.35 114.85 96 116.5 96H122.5C124.15 96 125.5 97.35 125.5 99V100.5ZM125.5 88.5C125.5 90.15 124.15 91.5 122.5 91.5H116.5C114.85 91.5 113.5 90.15 113.5 88.5V87C113.5 85.35 114.85 84 116.5 84H122.5C124.15 84 125.5 85.35 125.5 87V88.5ZM125.5 76.5C125.5 78.15 124.15 79.5 122.5 79.5H116.5C114.85 79.5 113.5 78.15 113.5 76.5V75C113.5 73.35 114.85 72 116.5 72H122.5C124.15 72 125.5 73.35 125.5 75V76.5ZM143.5 100.5C143.5 102.15 142.15 103.5 140.5 103.5H134.5C132.85 103.5 131.5 102.15 131.5 100.5V99C131.5 97.35 132.85 96 134.5 96H140.5C142.15 96 143.5 97.35 143.5 99V100.5ZM143.5 88.5C143.5 90.15 142.15 91.5 140.5 91.5H134.5C132.85 91.5 131.5 90.15 131.5 88.5V87C131.5 85.35 132.85 84 134.5 84H140.5C142.15 84 143.5 85.35 143.5 87V88.5ZM143.5 76.5C143.5 78.15 142.15 79.5 140.5 79.5H134.5C132.85 79.5 131.5 78.15 131.5 76.5V75C131.5 73.35 132.85 72 134.5 72H140.5C142.15 72 143.5 73.35 143.5 75V76.5ZM143.5 63C143.5 64.65 142.15 66 140.5 66H98.5C96.85 66 95.5 64.65 95.5 63V51C95.5 49.35 96.85 48 98.5 48H140.5C142.15 48 143.5 49.35 143.5 51V63Z" fill="#FFFDFE"/>
</svg>
