<svg width="238" height="153" viewBox="0 0 238 153" fill="none" xmlns="http://www.w3.org/2000/svg">
<rect width="238" height="153" fill="#551D3B"/>
<path d="M103.842 55.6579V48.079C103.842 45.9947 104.585 44.2099 106.071 42.7244C107.556 41.239 109.34 40.4975 111.421 40.5H126.579C128.663 40.5 130.448 41.2427 131.934 42.7282C133.419 44.2137 134.161 45.9973 134.158 48.079V55.6579H149.316C151.4 55.6579 153.185 56.4006 154.671 57.8861C156.156 59.3716 156.897 61.1552 156.895 63.2368V104.921C156.895 107.005 156.152 108.79 154.667 110.276C153.181 111.761 151.398 112.503 149.316 112.5H88.6844C86.6002 112.5 84.8154 111.757 83.3299 110.272C81.8444 108.786 81.1029 107.003 81.1055 104.921V63.2368C81.1055 61.1526 81.8482 59.3678 83.3337 57.8823C84.8192 56.3968 86.6027 55.6554 88.6844 55.6579H103.842ZM111.421 55.6579H126.579V48.079H111.421V55.6579ZM149.316 89.7632H130.369V93.5526C130.369 94.6263 130.005 95.5269 129.277 96.2545C128.55 96.9821 127.65 97.3446 126.579 97.3421H111.421C110.348 97.3421 109.447 96.9783 108.719 96.2507C107.992 95.5232 107.629 94.6238 107.632 93.5526V89.7632H88.6844V104.921H149.316V89.7632ZM115.211 89.7632H122.79V82.1842H115.211V89.7632ZM88.6844 82.1842H107.632V78.3947C107.632 77.3211 107.996 76.4204 108.723 75.6928C109.451 74.9653 110.35 74.6027 111.421 74.6053H126.579C127.653 74.6053 128.553 74.9691 129.281 75.6966C130.009 76.4242 130.371 77.3236 130.369 78.3947V82.1842H149.316V63.2368H88.6844V82.1842Z" fill="#FFFDFE"/>
</svg>
