<svg width="13" height="16" viewBox="0 0 13 16" fill="none" xmlns="http://www.w3.org/2000/svg">
<g id="Group">
<path id="Vector" d="M4.55951 4.92664C5.03109 4.92664 5.41004 4.54769 5.41004 4.07611C5.41004 3.60453 5.03109 3.22559 4.55951 3.22559C4.08793 3.22559 3.70898 3.60453 3.70898 4.07611C3.70898 4.54769 4.08793 4.92664 4.55951 4.92664Z" fill="#7F7E7E"/>
<path id="Vector_2" fill-rule="evenodd" clip-rule="evenodd" d="M6.2688 6.77921C6.2688 5.86973 5.50248 5.21289 4.55932 5.21289C3.61617 5.21289 2.84985 5.86973 2.84985 6.77921V7.20868C2.84985 7.28447 2.88353 7.36026 2.93406 7.41079C2.98459 7.46131 3.06038 7.495 3.13617 7.495H5.98248C6.05827 7.495 6.13406 7.46131 6.18459 7.41079C6.23511 7.36026 6.2688 7.28447 6.2688 7.20868V6.77921ZM2.83301 9.26342C2.83301 9.09591 2.89955 8.93527 3.01799 8.81682C3.13644 8.69838 3.29708 8.63184 3.46459 8.63184H9.35932C9.52683 8.63184 9.68747 8.69838 9.80592 8.81682C9.92436 8.93527 9.9909 9.09591 9.9909 9.26342C9.9909 9.43092 9.92436 9.59157 9.80592 9.71001C9.68747 9.82845 9.52683 9.895 9.35932 9.895H3.46459C3.29708 9.895 3.13644 9.82845 3.01799 9.71001C2.89955 9.59157 2.83301 9.43092 2.83301 9.26342ZM2.83301 11.7897C2.83301 11.6222 2.89955 11.4616 3.01799 11.3431C3.13644 11.2247 3.29708 11.1582 3.46459 11.1582H9.35932C9.52683 11.1582 9.68747 11.2247 9.80592 11.3431C9.92436 11.4616 9.9909 11.6222 9.9909 11.7897C9.9909 11.9572 9.92436 12.1179 9.80592 12.2363C9.68747 12.3548 9.52683 12.4213 9.35932 12.4213H3.46459C3.29708 12.4213 3.13644 12.3548 3.01799 12.2363C2.89955 12.1179 2.83301 11.9572 2.83301 11.7897Z" fill="#7F7E7E"/>
<path id="Vector_3" fill-rule="evenodd" clip-rule="evenodd" d="M0.0961914 1.68421C0.0961914 0.756211 0.852402 0 1.7804 0H7.41409C7.88735 0 8.33366 0.200421 8.64777 0.531368L8.65282 0.537263L12.284 4.49684C12.5863 4.81937 12.7278 5.24126 12.7278 5.64211V14.3158C12.7278 15.2438 11.9716 16 11.0436 16H1.7804C0.852402 16 0.0961914 15.2438 0.0961914 14.3158V1.68421ZM7.41324 1.68421H1.7804V14.3158H11.0436V5.63537L7.42588 1.69011L7.42335 1.68926C7.42028 1.68704 7.41687 1.68533 7.41324 1.68421Z" fill="#7F7E7E"/>
<path id="Vector_4" fill-rule="evenodd" clip-rule="evenodd" d="M7.41437 0C7.63771 0 7.8519 0.0887216 8.00983 0.246647C8.16776 0.404572 8.25648 0.618765 8.25648 0.842105V4.8H11.886C11.9965 4.8 12.106 4.82178 12.2082 4.8641C12.3104 4.90642 12.4032 4.96845 12.4814 5.04665C12.5596 5.12484 12.6216 5.21768 12.664 5.31985C12.7063 5.42201 12.7281 5.53152 12.7281 5.64211C12.7281 5.75269 12.7063 5.8622 12.664 5.96437C12.6216 6.06653 12.5596 6.15937 12.4814 6.23756C12.4032 6.31576 12.3104 6.37779 12.2082 6.42011C12.106 6.46243 11.9965 6.48421 11.886 6.48421H7.41437C7.19103 6.48421 6.97684 6.39549 6.81891 6.23756C6.66099 6.07964 6.57227 5.86545 6.57227 5.64211V0.842105C6.57227 0.618765 6.66099 0.404572 6.81891 0.246647C6.97684 0.0887216 7.19103 0 7.41437 0Z" fill="#7F7E7E"/>
</g>
</svg>
