<svg width="238" height="153" viewBox="0 0 238 153" fill="none" xmlns="http://www.w3.org/2000/svg">
<rect width="238" height="153" fill="#551D3B"/>
<path d="M152.068 67.7377H85.9324C82.7991 67.7377 81.4562 64.3246 83.9181 62.702L116.986 41.0485C117.596 40.6894 118.292 40.5 119 40.5C119.708 40.5 120.404 40.6894 121.014 41.0485L154.082 62.702C156.544 64.3246 155.201 67.7377 152.068 67.7377Z" stroke="#FFFDFE" stroke-width="5.14286" stroke-linecap="round" stroke-linejoin="round"/>
<path d="M91.0244 67.7383V98.5119M105.012 67.7383V98.5119M119 67.7383V98.5119M132.988 67.7383V98.5119M146.976 67.7383V98.5119" stroke="#FFFDFE" stroke-width="5.14286" stroke-linecap="round" stroke-linejoin="round"/>
<path d="M152.571 98.5117H85.4285C83.8834 98.5117 82.6309 99.7642 82.6309 101.309V109.702C82.6309 111.247 83.8834 112.5 85.4285 112.5H152.571C154.116 112.5 155.369 111.247 155.369 109.702V101.309C155.369 99.7642 154.116 98.5117 152.571 98.5117Z" stroke="#FFFDFE" stroke-width="5.14286" stroke-linecap="round" stroke-linejoin="round"/>
</svg>
