<svg width="153" height="64" viewBox="0 0 153 64" fill="none" xmlns="http://www.w3.org/2000/svg">
<g id="Frame 2 9">
<path id="Vector" d="M38.9983 0H0V38.9983H38.9983V0Z" fill="#FCFBFC"/>
<path id="Vector_2" d="M10 17.2827H13.1096V37.0709H10V17.2827ZM20.6116 37.3536C19.104 37.3536 17.9638 36.9296 17.1911 36.0816C16.4184 35.2146 16.0321 33.9802 16.0321 32.3783V31.2476H18.9721V32.6044C18.9721 33.886 19.5092 34.5267 20.5834 34.5267C21.1111 34.5267 21.5069 34.376 21.7707 34.0745C22.0534 33.754 22.1947 33.2453 22.1947 32.5479C22.1947 31.7187 22.0063 30.9931 21.6293 30.3712C21.2525 29.7305 20.5551 28.9672 19.5374 28.0814C18.2559 26.9507 17.3608 25.933 16.8519 25.0284C16.3431 24.1049 16.0887 23.0684 16.0887 21.9187C16.0887 20.3545 16.4844 19.1485 17.2759 18.3004C18.0674 17.4335 19.2171 17 20.7248 17C22.2135 17 23.3349 17.4335 24.0888 18.3004C24.8615 19.1485 25.2477 20.3735 25.2477 21.9754V22.7951H22.3078V21.7775C22.3078 21.099 22.1759 20.609 21.912 20.3074C21.6482 19.9871 21.2619 19.8269 20.753 19.8269C19.7165 19.8269 19.1982 20.4583 19.1982 21.7209C19.1982 22.4371 19.3866 23.1061 19.7636 23.7281C20.1593 24.3499 20.8661 25.1038 21.8838 25.9895C23.1841 27.1203 24.0794 28.1474 24.5694 29.0708C25.0594 29.9943 25.3043 31.0779 25.3043 32.3218C25.3043 33.9425 24.8991 35.1863 24.0888 36.0532C23.2972 36.9202 22.1382 37.3536 20.6116 37.3536ZM28.218 17.2827H36.6987V20.1095H31.3276V25.3394H35.5962V28.1662H31.3276V34.244H36.6987V37.0709H28.218V17.2827Z" fill="#1A0E15"/>
<path id="Vector_3" d="M3.42523 44.1076H2.30762V56.9602C2.30762 59.3899 3.35234 61.2606 5.95202 61.2606C8.57598 61.2606 9.57212 59.3899 9.57212 56.9602V44.1076H8.52739V57.0088C8.52739 58.8553 7.8471 60.2402 5.97631 60.2402C4.10552 60.2402 3.42523 58.8553 3.42523 57.0088V44.1076ZM12.5114 45.9541L17.8322 61.1149H19.0712V44.1076H18.0509V58.4666L12.9487 44.1076H11.4909V61.1149H12.5114V45.9541ZM22.0991 51.9795V45.1281H27.6872V44.1076H20.9815V61.1149H27.6872V60.0944H22.0991V53H26.7397V51.9795H22.0991ZM33.0952 43.9619C30.4955 43.9619 29.4265 45.8084 29.4265 48.2623V56.9602C29.4265 59.4141 30.4955 61.2606 33.0952 61.2606C35.6949 61.2606 36.7639 59.4141 36.7639 56.9602V55.0166H35.6949V57.0332C35.6949 58.8553 34.9903 60.2159 33.1195 60.2159C31.2487 60.2159 30.5441 58.8553 30.5441 57.0332V48.1894C30.5441 46.3672 31.2487 44.9824 33.1195 44.9824C34.9903 44.9824 35.6949 46.3672 35.6949 48.1894V49.6715H36.7639V48.2623C36.7639 45.8084 35.6949 43.9619 33.0952 43.9619Z" fill="#FCFBFC"/>
<path id="Vector_4" d="M46.7724 2.34833H49.2829V18.3235H46.7724V2.34833ZM51.163 2.34833H54.3124L56.7543 11.9106H56.7999V2.34833H59.0364V18.3235H56.4576L53.4451 6.66162H53.3995V18.3235H51.163V2.34833ZM62.865 4.6305H60.2404V2.34833H67.9998V4.6305H65.3754V18.3235H62.865V4.6305ZM69.2153 2.34833H76.0618V4.6305H71.7256V8.8525H75.1717V11.1347H71.7256V16.0413H76.0618V18.3235H69.2153V2.34833ZM77.5059 2.34833H81.2259C82.5191 2.34833 83.4624 2.65262 84.0558 3.2612C84.6491 3.85456 84.9458 4.77503 84.9458 6.02261V7.00395C84.9458 8.66232 84.398 9.71212 83.3027 10.1533V10.199C83.9112 10.3816 84.3372 10.7543 84.5806 11.3172C84.8393 11.8802 84.9686 12.6333 84.9686 13.5766V16.3836C84.9686 16.8401 84.9839 17.2128 85.0143 17.502C85.0447 17.7758 85.1207 18.0496 85.2425 18.3235H82.6865C82.5951 18.0648 82.5343 17.8214 82.5039 17.5932C82.4734 17.365 82.4583 16.9542 82.4583 16.3609V13.4396C82.4583 12.7093 82.3366 12.1997 82.0931 11.9106C81.8648 11.6215 81.4617 11.477 80.8836 11.477H80.0163V18.3235H77.5059V2.34833ZM80.9292 9.19482C81.4313 9.19482 81.8041 9.06551 82.0474 8.80686C82.3061 8.54821 82.4354 8.1146 82.4354 7.50602V6.27365C82.4354 5.69551 82.3289 5.27711 82.1159 5.01846C81.9182 4.75981 81.5986 4.6305 81.1574 4.6305H80.0163V9.19482H80.9292ZM86.7104 2.34833H89.8597L92.3017 11.9106H92.3473V2.34833H94.5839V18.3235H92.0051L88.9926 6.66162H88.9469V18.3235H86.7104V2.34833ZM98.3896 2.34833H101.79L104.392 18.3235H101.881L101.425 15.1513V15.1969H98.5722L98.1157 18.3235H95.7879L98.3896 2.34833ZM101.128 13.0289L100.01 5.13257H99.9642L98.8688 13.0289H101.128ZM106.525 4.6305H103.9V2.34833H111.66V4.6305H109.035V18.3235H106.525V4.6305ZM112.875 2.34833H115.385V18.3235H112.875V2.34833ZM120.894 18.5517C119.662 18.5517 118.719 18.2018 118.064 17.502C117.41 16.802 117.083 15.8131 117.083 14.5351V6.13672C117.083 4.85871 117.41 3.86977 118.064 3.16991C118.719 2.47004 119.662 2.12012 120.894 2.12012C122.126 2.12012 123.07 2.47004 123.724 3.16991C124.378 3.86977 124.705 4.85871 124.705 6.13672V14.5351C124.705 15.8131 124.378 16.802 123.724 17.502C123.07 18.2018 122.126 18.5517 120.894 18.5517ZM120.894 16.2695C121.762 16.2695 122.196 15.7447 122.196 14.6948V5.97698C122.196 4.92717 121.762 4.40228 120.894 4.40228C120.027 4.40228 119.594 4.92717 119.594 5.97698V14.6948C119.594 15.7447 120.027 16.2695 120.894 16.2695ZM126.403 2.34833H129.553L131.994 11.9106H132.04V2.34833H134.276V18.3235H131.697L128.685 6.66162H128.639V18.3235H126.403V2.34833ZM138.082 2.34833H141.483L144.085 18.3235H141.574L141.118 15.1513V15.1969H138.265L137.809 18.3235H135.481L138.082 2.34833ZM140.821 13.0289L139.703 5.13257H139.657L138.562 13.0289H140.821ZM145.302 2.34833H147.813V16.0413H151.943V18.3235H145.302V2.34833ZM50.036 39.0659C48.8188 39.0659 47.8984 38.7236 47.2746 38.0389C46.6507 37.3391 46.3389 36.3425 46.3389 35.0493V34.1364H48.7123V35.2319C48.7123 36.2665 49.1459 36.7837 50.0132 36.7837C50.4391 36.7837 50.7587 36.662 50.9717 36.4186C51.1999 36.1599 51.314 35.7491 51.314 35.1863C51.314 34.5168 51.1618 33.931 50.8575 33.429C50.5533 32.9116 49.9904 32.2955 49.1688 31.5804C48.1342 30.6675 47.4115 29.8459 47.0007 29.1157C46.59 28.3701 46.3845 27.5334 46.3845 26.6052C46.3845 25.3424 46.7041 24.3688 47.343 23.6841C47.982 22.9843 48.9101 22.6343 50.1273 22.6343C51.3293 22.6343 52.2345 22.9843 52.843 23.6841C53.4668 24.3688 53.7788 25.3577 53.7788 26.651V27.3128H51.4053V26.4911C51.4053 25.9434 51.2988 25.5479 51.0858 25.3044C50.8728 25.0458 50.5608 24.9164 50.1501 24.9164C49.3133 24.9164 48.8949 25.4262 48.8949 26.4455C48.8949 27.0236 49.0471 27.5637 49.3514 28.0658C49.6708 28.568 50.2414 29.1766 51.063 29.8916C52.1128 30.8044 52.8355 31.6337 53.231 32.3791C53.6266 33.1247 53.8244 33.9995 53.8244 35.0037C53.8244 36.3121 53.4973 37.3162 52.843 38.0161C52.204 38.716 51.2684 39.0659 50.036 39.0659ZM58.8011 39.0659C57.5991 39.0659 56.6787 38.7236 56.0397 38.0389C55.4159 37.3542 55.104 36.3882 55.104 35.1405V26.5596C55.104 25.3121 55.4159 24.3459 56.0397 23.6612C56.6787 22.9767 57.5991 22.6343 58.8011 22.6343C60.003 22.6343 60.9159 22.9767 61.5397 23.6612C62.1787 24.3459 62.4982 25.3121 62.4982 26.5596V28.2484H60.1247V26.3999C60.1247 25.4109 59.7063 24.9164 58.8696 24.9164C58.0328 24.9164 57.6144 25.4109 57.6144 26.3999V35.3231C57.6144 36.2969 58.0328 36.7837 58.8696 36.7837C59.7063 36.7837 60.1247 36.2969 60.1247 35.3231V32.8812H62.4982V35.1405C62.4982 36.3882 62.1787 37.3542 61.5397 38.0389C60.9159 38.7236 60.003 39.0659 58.8011 39.0659ZM64.0002 22.8626H66.5105V29.3666H69.2035V22.8626H71.7139V38.8377H69.2035V31.6488H66.5105V38.8377H64.0002V22.8626ZM77.2121 39.0659C75.9797 39.0659 75.0364 38.716 74.3822 38.0161C73.728 37.3162 73.4009 36.3273 73.4009 35.0493V26.651C73.4009 25.3729 73.728 24.3839 74.3822 23.6841C75.0364 22.9843 75.9797 22.6343 77.2121 22.6343C78.4445 22.6343 79.3878 22.9843 80.042 23.6841C80.6962 24.3839 81.0233 25.3729 81.0233 26.651V35.0493C81.0233 36.3273 80.6962 37.3162 80.042 38.0161C79.3878 38.716 78.4445 39.0659 77.2121 39.0659ZM77.2121 36.7837C78.0793 36.7837 78.5129 36.2589 78.5129 35.209V26.4911C78.5129 25.4414 78.0793 24.9164 77.2121 24.9164C76.3449 24.9164 75.9112 25.4414 75.9112 26.4911V35.209C75.9112 36.2589 76.3449 36.7837 77.2121 36.7837ZM86.3497 39.0659C85.1173 39.0659 84.174 38.716 83.5198 38.0161C82.8656 37.3162 82.5385 36.3273 82.5385 35.0493V26.651C82.5385 25.3729 82.8656 24.3839 83.5198 23.6841C84.174 22.9843 85.1173 22.6343 86.3497 22.6343C87.5821 22.6343 88.5253 22.9843 89.1795 23.6841C89.8338 24.3839 90.1609 25.3729 90.1609 26.651V35.0493C90.1609 36.3273 89.8338 37.3162 89.1795 38.0161C88.5253 38.716 87.5821 39.0659 86.3497 39.0659ZM86.3497 36.7837C87.2169 36.7837 87.6505 36.2589 87.6505 35.209V26.4911C87.6505 25.4414 87.2169 24.9164 86.3497 24.9164C85.4825 24.9164 85.0488 25.4414 85.0488 26.4911V35.209C85.0488 36.2589 85.4825 36.7837 86.3497 36.7837ZM91.8586 22.8626H94.369V36.5555H98.4997V38.8377H91.8586V22.8626ZM106.987 39.0659C105.755 39.0659 104.812 38.716 104.157 38.0161C103.503 37.3162 103.176 36.3273 103.176 35.0493V26.651C103.176 25.3729 103.503 24.3839 104.157 23.6841C104.812 22.9843 105.755 22.6343 106.987 22.6343C108.219 22.6343 109.163 22.9843 109.818 23.6841C110.471 24.3839 110.798 25.3729 110.798 26.651V35.0493C110.798 36.3273 110.471 37.3162 109.818 38.0161C109.163 38.716 108.219 39.0659 106.987 39.0659ZM106.987 36.7837C107.855 36.7837 108.288 36.2589 108.288 35.209V26.4911C108.288 25.4414 107.855 24.9164 106.987 24.9164C106.12 24.9164 105.686 25.4414 105.686 26.4911V35.209C105.686 36.2589 106.12 36.7837 106.987 36.7837ZM112.496 22.8626H119.138V25.1447H115.007V29.5949H118.248V31.8771H115.007V38.8377H112.496V22.8626ZM46.7724 43.3768H53.6189V45.6589H49.2829V49.8808H52.7289V52.163H49.2829V57.0697H53.6189V59.3519H46.7724V43.3768ZM58.6005 59.5801C57.3986 59.5801 56.4781 59.2378 55.8391 58.5531C55.2153 57.8684 54.9034 56.9023 54.9034 55.6547V47.0738C54.9034 45.8263 55.2153 44.8601 55.8391 44.1754C56.4781 43.4909 57.3986 43.1485 58.6005 43.1485C59.8025 43.1485 60.7154 43.4909 61.3391 44.1754C61.9782 44.8601 62.2976 45.8263 62.2976 47.0738V48.7626H59.9242V46.9141C59.9242 45.9251 59.5058 45.4306 58.669 45.4306C57.8322 45.4306 57.4138 45.9251 57.4138 46.9141V55.8373C57.4138 56.8111 57.8322 57.2979 58.669 57.2979C59.5058 57.2979 59.9242 56.8111 59.9242 55.8373V53.3954H62.2976V55.6547C62.2976 56.9023 61.9782 57.8684 61.3391 58.5531C60.7154 59.2378 59.8025 59.5801 58.6005 59.5801ZM67.4728 59.5801C66.2404 59.5801 65.2972 59.2302 64.6429 58.5303C63.9887 57.8304 63.6616 56.8414 63.6616 55.5635V47.1652C63.6616 45.8871 63.9887 44.8981 64.6429 44.1983C65.2972 43.4985 66.2404 43.1485 67.4728 43.1485C68.7052 43.1485 69.6484 43.4985 70.3026 44.1983C70.9569 44.8981 71.284 45.8871 71.284 47.1652V55.5635C71.284 56.8414 70.9569 57.8304 70.3026 58.5303C69.6484 59.2302 68.7052 59.5801 67.4728 59.5801ZM67.4728 57.2979C68.34 57.2979 68.7736 56.7731 68.7736 55.7232V47.0053C68.7736 45.9556 68.34 45.4306 67.4728 45.4306C66.6056 45.4306 66.1719 45.9556 66.1719 47.0053V55.7232C66.1719 56.7731 66.6056 57.2979 67.4728 57.2979ZM72.9818 43.3768H76.1311L78.5731 52.9389H78.6187V43.3768H80.8552V59.3519H78.2764L75.2639 47.69H75.2183V59.3519H72.9818V43.3768ZM86.3497 59.5801C85.1173 59.5801 84.174 59.2302 83.5198 58.5303C82.8656 57.8304 82.5385 56.8414 82.5385 55.5635V47.1652C82.5385 45.8871 82.8656 44.8981 83.5198 44.1983C84.174 43.4985 85.1173 43.1485 86.3497 43.1485C87.5821 43.1485 88.5253 43.4985 89.1795 44.1983C89.8338 44.8981 90.1609 45.8871 90.1609 47.1652V55.5635C90.1609 56.8414 89.8338 57.8304 89.1795 58.5303C88.5253 59.2302 87.5821 59.5801 86.3497 59.5801ZM86.3497 57.2979C87.2169 57.2979 87.6505 56.7731 87.6505 55.7232V47.0053C87.6505 45.9556 87.2169 45.4306 86.3497 45.4306C85.4825 45.4306 85.0488 45.9556 85.0488 47.0053V55.7232C85.0488 56.7731 85.4825 57.2979 86.3497 57.2979ZM91.8586 43.3768H95.4416L97.0392 54.8103H97.0848L98.6823 43.3768H102.265V59.3519H99.8918V47.2564H99.8462L98.0205 59.3519H95.9209L94.0952 47.2564H94.0495V59.3519H91.8586V43.3768ZM104.139 43.3768H106.649V59.3519H104.139V43.3768ZM112.067 59.5801C110.865 59.5801 109.944 59.2378 109.305 58.5531C108.681 57.8684 108.37 56.9023 108.37 55.6547V47.0738C108.37 45.8263 108.681 44.8601 109.305 44.1754C109.944 43.4909 110.865 43.1485 112.067 43.1485C113.269 43.1485 114.181 43.4909 114.805 44.1754C115.444 44.8601 115.763 45.8263 115.763 47.0738V48.7626H113.39V46.9141C113.39 45.9251 112.972 45.4306 112.135 45.4306C111.298 45.4306 110.88 45.9251 110.88 46.9141V55.8373C110.88 56.8111 111.298 57.2979 112.135 57.2979C112.972 57.2979 113.39 56.8111 113.39 55.8373V53.3954H115.763V55.6547C115.763 56.9023 115.444 57.8684 114.805 58.5531C114.181 59.2378 113.269 59.5801 112.067 59.5801ZM120.574 59.5801C119.357 59.5801 118.436 59.2378 117.812 58.5531C117.189 57.8533 116.877 56.8567 116.877 55.5635V54.6506H119.25V55.7461C119.25 56.7806 119.684 57.2979 120.551 57.2979C120.976 57.2979 121.296 57.1762 121.51 56.9328C121.737 56.6741 121.851 56.2633 121.851 55.7004C121.851 55.031 121.7 54.4452 121.395 53.9432C121.091 53.4258 120.528 52.8097 119.706 52.0945C118.672 51.1817 117.95 50.3601 117.538 49.6298C117.128 48.8843 116.922 48.0476 116.922 47.1194C116.922 45.8566 117.241 44.8829 117.881 44.1983C118.52 43.4985 119.447 43.1485 120.664 43.1485C121.866 43.1485 122.772 43.4985 123.38 44.1983C124.004 44.8829 124.316 45.8719 124.316 47.1652V47.827H121.943V47.0053C121.943 46.4576 121.837 46.0621 121.624 45.8186C121.41 45.56 121.098 45.4306 120.688 45.4306C119.851 45.4306 119.433 45.9404 119.433 46.9597C119.433 47.5378 119.584 48.0779 119.889 48.58C120.208 49.0822 120.779 49.6908 121.6 50.4058C122.651 51.3186 123.373 52.1479 123.768 52.8933C124.165 53.6389 124.362 54.5137 124.362 55.5179C124.362 56.8263 124.035 57.8304 123.38 58.5303C122.742 59.2302 121.806 59.5801 120.574 59.5801Z" fill="#FCFBFC"/>
</g>
</svg>
