<svg width="16" height="14" viewBox="0 0 16 14" fill="none" xmlns="http://www.w3.org/2000/svg">
<path id="Vector" d="M3.69932 1.55625C3.69911 1.96878 3.53503 2.36434 3.24318 2.6559C2.95133 2.94746 2.55561 3.11115 2.14307 3.11094C1.73053 3.11073 1.33498 2.94666 1.04342 2.6548C0.751854 2.36295 0.588173 1.96723 0.588379 1.55469C0.588585 1.14216 0.752662 0.746598 1.04452 0.455036C1.33637 0.163475 1.73209 -0.000206073 2.14463 1.94715e-07C2.55716 0.000206463 2.95272 0.164284 3.24428 0.456136C3.53584 0.747989 3.69952 1.14371 3.69932 1.55625ZM3.74598 4.26276H0.635043V14H3.74598V4.26276ZM8.66126 4.26276H5.56588V14H8.63015V8.89028C8.63015 6.04378 12.3399 5.77935 12.3399 8.89028V14H15.412V7.83256C15.412 3.03394 9.92119 3.21282 8.63015 5.56936L8.66126 4.26276Z" fill="#F8F8F9"/>
</svg>
