<svg width="238" height="153" viewBox="0 0 238 153" fill="none" xmlns="http://www.w3.org/2000/svg">
<rect width="238" height="153" fill="#551D3B"/>
<path d="M107 43.5C107 42.7044 107.316 41.9413 107.879 41.3787C108.441 40.8161 109.204 40.5 110 40.5H128C128.796 40.5 129.559 40.8161 130.121 41.3787C130.684 41.9413 131 42.7044 131 43.5V52.5H146C146.796 52.5 147.559 52.8161 148.121 53.3787C148.684 53.9413 149 54.7044 149 55.5V76.632L156.194 79.752C156.577 79.9188 156.921 80.1637 157.203 80.471C157.486 80.7783 157.701 81.1412 157.836 81.5365C157.97 81.9319 158.021 82.3509 157.984 82.7668C157.947 83.1828 157.824 83.5864 157.622 83.952L150.752 96.318C149.468 93.966 147.716 91.5 143 91.5C137.798 91.5 136.202 94.506 134.858 97.044C133.874 98.898 133.028 100.5 131 100.5C128.972 100.5 128.12 98.898 127.142 97.044C125.798 94.5 124.202 91.5 119 91.5C113.798 91.5 112.202 94.506 110.858 97.044C109.88 98.898 109.028 100.5 107 100.5C104.972 100.5 104.12 98.898 103.142 97.044C101.798 94.5 100.202 91.5 95 91.5C90.284 91.5 88.532 93.972 87.248 96.318L80.378 83.958C80.173 83.5921 80.047 83.1872 80.0081 82.7695C79.9692 82.3519 80.0184 81.9307 80.1524 81.5332C80.2864 81.1358 80.5023 80.7708 80.7861 80.4619C81.0699 80.153 81.4153 79.9071 81.8 79.74L89 76.626V55.5C89 54.7044 89.3161 53.9413 89.8787 53.3787C90.4413 52.8161 91.2044 52.5 92 52.5H107V43.5ZM124.964 66.216L143 74.028V58.5H95V74.028L113.036 66.216C114.919 65.4003 116.948 64.9794 119 64.9794C121.052 64.9794 123.081 65.4003 124.964 66.216ZM113 52.5H125V46.5H113V52.5ZM95.318 106.92C97.574 109.62 101.336 112.482 106.946 112.5H107.048C109.368 112.491 111.655 111.945 113.729 110.904C115.802 109.863 117.607 108.355 119 106.5C119.36 106.98 119.738 107.412 120.122 107.82C122.426 110.22 125.954 112.482 130.946 112.5H130.13H131.048C136.664 112.482 140.426 109.62 142.682 106.92C142.844 106.728 142.994 106.53 143.144 106.338C143.372 106.596 143.618 106.86 143.876 107.118C146.654 109.896 151.154 112.5 158 112.5C158.796 112.5 159.559 112.184 160.121 111.621C160.684 111.059 161 110.296 161 109.5C161 108.704 160.684 107.941 160.121 107.379C159.559 106.816 158.796 106.5 158 106.5C152.846 106.5 149.846 104.604 148.124 102.876C147.155 101.922 146.38 100.789 145.844 99.54C145.64 98.9491 145.256 98.4366 144.747 98.0739C144.238 97.7112 143.628 97.5162 143.003 97.5162C142.378 97.5162 141.768 97.7112 141.259 98.0739C140.75 98.4366 140.366 98.9491 140.162 99.54C139.656 100.822 138.951 102.017 138.074 103.08C136.58 104.868 134.354 106.5 130.994 106.5C127.64 106.5 125.414 104.868 123.926 103.08C123.056 102.025 122.356 100.841 121.85 99.57C121.725 99.18 121.522 98.82 121.252 98.5122C120.982 98.2044 120.651 97.9555 120.281 97.781C119.91 97.6065 119.508 97.5101 119.099 97.4979C118.689 97.4857 118.282 97.5579 117.902 97.71C117.489 97.8701 117.117 98.1201 116.813 98.4418C116.509 98.7635 116.281 99.1489 116.144 99.57C115.638 100.841 114.938 102.025 114.068 103.08C112.58 104.868 110.36 106.5 107 106.5C103.64 106.5 101.42 104.868 99.932 103.08C99.2917 102.305 98.7421 101.46 98.294 100.56C98.1844 100.338 98.0843 100.112 97.994 99.882C97.874 99.582 97.754 99.27 97.592 98.994C97.2251 98.3628 96.6406 97.8871 95.948 97.656L95.918 97.644C95.2676 97.4312 94.5637 97.4487 93.9246 97.6934C93.2855 97.9381 92.75 98.3952 92.408 98.988C92.2719 99.2341 92.1516 99.4886 92.048 99.75C91.9525 99.9896 91.8444 100.224 91.724 100.452C91.2224 101.341 90.6005 102.157 89.876 102.876C88.16 104.604 85.16 106.5 80 106.5C79.2044 106.5 78.4413 106.816 77.8787 107.379C77.3161 107.941 77 108.704 77 109.5C77 110.296 77.3161 111.059 77.8787 111.621C78.4413 112.184 79.2044 112.5 80 112.5C86.846 112.5 91.346 109.896 94.124 107.124C94.382 106.86 94.628 106.602 94.856 106.344C95.006 106.53 95.156 106.728 95.318 106.92Z" fill="#FFFDFE"/>
</svg>
