<svg width="153" height="64" viewBox="0 0 153 64" fill="none" xmlns="http://www.w3.org/2000/svg">
<path d="M38.9983 0H0V38.9983H38.9983V0Z" fill="#551D3B"/>
<path d="M10 17.2827H13.1096V37.0709H10V17.2827ZM20.6116 37.3536C19.104 37.3536 17.9638 36.9296 17.1911 36.0816C16.4184 35.2146 16.0321 33.9802 16.0321 32.3783V31.2476H18.9721V32.6044C18.9721 33.886 19.5092 34.5267 20.5834 34.5267C21.1111 34.5267 21.5069 34.376 21.7707 34.0745C22.0534 33.754 22.1947 33.2453 22.1947 32.5479C22.1947 31.7187 22.0063 30.9931 21.6293 30.3712C21.2525 29.7305 20.5551 28.9672 19.5374 28.0814C18.2559 26.9507 17.3608 25.933 16.8519 25.0284C16.3431 24.1049 16.0887 23.0684 16.0887 21.9187C16.0887 20.3545 16.4844 19.1485 17.2759 18.3004C18.0674 17.4335 19.2171 17 20.7248 17C22.2135 17 23.3349 17.4335 24.0888 18.3004C24.8615 19.1485 25.2477 20.3735 25.2477 21.9754V22.7951H22.3078V21.7775C22.3078 21.099 22.1759 20.609 21.912 20.3074C21.6482 19.9871 21.2619 19.8269 20.753 19.8269C19.7165 19.8269 19.1982 20.4583 19.1982 21.7209C19.1982 22.4371 19.3866 23.1061 19.7636 23.7281C20.1593 24.3499 20.8661 25.1038 21.8838 25.9895C23.1841 27.1203 24.0794 28.1474 24.5694 29.0708C25.0594 29.9943 25.3043 31.0779 25.3043 32.3218C25.3043 33.9425 24.8991 35.1863 24.0888 36.0532C23.2972 36.9202 22.1382 37.3536 20.6116 37.3536ZM28.218 17.2827H36.6987V20.1095H31.3276V25.3394H35.5962V28.1662H31.3276V34.244H36.6987V37.0709H28.218V17.2827Z" fill="white"/>
<path d="M3.42523 44.1086H2.30762V56.9612C2.30762 59.3908 3.35234 61.2616 5.95202 61.2616C8.57598 61.2616 9.57212 59.3908 9.57212 56.9612V44.1086H8.52739V57.0098C8.52739 58.8563 7.8471 60.2412 5.97631 60.2412C4.10552 60.2412 3.42523 58.8563 3.42523 57.0098V44.1086ZM12.5114 45.9551L17.8322 61.1159H19.0712V44.1086H18.0509V58.4676L12.9487 44.1086H11.4909V61.1159H12.5114V45.9551ZM22.0991 51.9805V45.1291H27.6872V44.1086H20.9815V61.1159H27.6872V60.0954H22.0991V53.001H26.7397V51.9805H22.0991ZM33.0952 43.9629C30.4955 43.9629 29.4265 45.8094 29.4265 48.2633V56.9612C29.4265 59.4151 30.4955 61.2616 33.0952 61.2616C35.6949 61.2616 36.7639 59.4151 36.7639 56.9612V55.0176H35.6949V57.0342C35.6949 58.8563 34.9903 60.2169 33.1195 60.2169C31.2487 60.2169 30.5441 58.8563 30.5441 57.0342V48.1904C30.5441 46.3682 31.2487 44.9834 33.1195 44.9834C34.9903 44.9834 35.6949 46.3682 35.6949 48.1904V49.6725H36.7639V48.2633C36.7639 45.8094 35.6949 43.9629 33.0952 43.9629Z" fill="#551D3B"/>
<path d="M46.7724 2.3493H49.2829V18.3245H46.7724V2.3493ZM51.163 2.3493H54.3124L56.7543 11.9115H56.7999V2.3493H59.0364V18.3245H56.4576L53.4451 6.66259H53.3995V18.3245H51.163V2.3493ZM62.865 4.63148H60.2404V2.3493H67.9998V4.63148H65.3754V18.3245H62.865V4.63148ZM69.2153 2.3493H76.0618V4.63148H71.7256V8.85348H75.1717V11.1356H71.7256V16.0423H76.0618V18.3245H69.2153V2.3493ZM77.5059 2.3493H81.2259C82.5191 2.3493 83.4624 2.6536 84.0558 3.26217C84.6491 3.85554 84.9458 4.776 84.9458 6.02359V7.00492C84.9458 8.66329 84.398 9.7131 83.3027 10.1543V10.2C83.9112 10.3825 84.3372 10.7553 84.5806 11.3182C84.8393 11.8812 84.9686 12.6342 84.9686 13.5776V16.3846C84.9686 16.841 84.9839 17.2138 85.0143 17.5029C85.0447 17.7768 85.1207 18.0506 85.2425 18.3245H82.6865C82.5951 18.0658 82.5343 17.8224 82.5039 17.5942C82.4734 17.366 82.4583 16.9551 82.4583 16.3618V13.4406C82.4583 12.7103 82.3366 12.2007 82.0931 11.9115C81.8648 11.6225 81.4617 11.478 80.8836 11.478H80.0163V18.3245H77.5059V2.3493ZM80.9292 9.1958C81.4313 9.1958 81.8041 9.06648 82.0474 8.80783C82.3061 8.54918 82.4354 8.11558 82.4354 7.507V6.27463C82.4354 5.69648 82.3289 5.27809 82.1159 5.01944C81.9182 4.76079 81.5986 4.63148 81.1574 4.63148H80.0163V9.1958H80.9292ZM86.7104 2.3493H89.8597L92.3017 11.9115H92.3473V2.3493H94.5839V18.3245H92.0051L88.9926 6.66259H88.9469V18.3245H86.7104V2.3493ZM98.3896 2.3493H101.79L104.392 18.3245H101.881L101.425 15.1522V15.1979H98.5722L98.1157 18.3245H95.7879L98.3896 2.3493ZM101.128 13.0299L100.01 5.13355H99.9642L98.8688 13.0299H101.128ZM106.525 4.63148H103.9V2.3493H111.66V4.63148H109.035V18.3245H106.525V4.63148ZM112.875 2.3493H115.385V18.3245H112.875V2.3493ZM120.894 18.5527C119.662 18.5527 118.719 18.2028 118.064 17.5029C117.41 16.803 117.083 15.814 117.083 14.5361V6.1377C117.083 4.85968 117.41 3.87075 118.064 3.17089C118.719 2.47102 119.662 2.12109 120.894 2.12109C122.126 2.12109 123.07 2.47102 123.724 3.17089C124.378 3.87075 124.705 4.85968 124.705 6.1377V14.5361C124.705 15.814 124.378 16.803 123.724 17.5029C123.07 18.2028 122.126 18.5527 120.894 18.5527ZM120.894 16.2705C121.762 16.2705 122.196 15.7457 122.196 14.6958V5.97795C122.196 4.92815 121.762 4.40325 120.894 4.40325C120.027 4.40325 119.594 4.92815 119.594 5.97795V14.6958C119.594 15.7457 120.027 16.2705 120.894 16.2705ZM126.403 2.3493H129.553L131.994 11.9115H132.04V2.3493H134.276V18.3245H131.697L128.685 6.66259H128.639V18.3245H126.403V2.3493ZM138.082 2.3493H141.483L144.085 18.3245H141.574L141.118 15.1522V15.1979H138.265L137.809 18.3245H135.481L138.082 2.3493ZM140.821 13.0299L139.703 5.13355H139.657L138.562 13.0299H140.821ZM145.302 2.3493H147.813V16.0423H151.943V18.3245H145.302V2.3493ZM50.036 39.0669C48.8188 39.0669 47.8984 38.7245 47.2746 38.0399C46.6507 37.34 46.3389 36.3435 46.3389 35.0503V34.1374H48.7123V35.2329C48.7123 36.2674 49.1459 36.7847 50.0132 36.7847C50.4391 36.7847 50.7587 36.663 50.9717 36.4196C51.1999 36.1609 51.314 35.7501 51.314 35.1872C51.314 34.5177 51.1618 33.932 50.8575 33.43C50.5533 32.9126 49.9904 32.2964 49.1688 31.5813C48.1342 30.6684 47.4115 29.8469 47.0007 29.1166C46.59 28.3711 46.3845 27.5344 46.3845 26.6062C46.3845 25.3434 46.7041 24.3697 47.343 23.6851C47.982 22.9852 48.9101 22.6353 50.1273 22.6353C51.3293 22.6353 52.2345 22.9852 52.843 23.6851C53.4668 24.3697 53.7788 25.3587 53.7788 26.6519V27.3137H51.4053V26.4921C51.4053 25.9444 51.2988 25.5489 51.0858 25.3054C50.8728 25.0468 50.5608 24.9174 50.1501 24.9174C49.3133 24.9174 48.8949 25.4272 48.8949 26.4465C48.8949 27.0246 49.0471 27.5647 49.3514 28.0668C49.6708 28.5689 50.2414 29.1775 51.063 29.8925C52.1128 30.8054 52.8355 31.6346 53.231 32.3801C53.6266 33.1257 53.8244 34.0005 53.8244 35.0046C53.8244 36.3131 53.4973 37.3172 52.843 38.0171C52.204 38.717 51.2684 39.0669 50.036 39.0669ZM58.8011 39.0669C57.5991 39.0669 56.6787 38.7245 56.0397 38.0399C55.4159 37.3552 55.104 36.3891 55.104 35.1415V26.5606C55.104 25.3131 55.4159 24.3469 56.0397 23.6622C56.6787 22.9777 57.5991 22.6353 58.8011 22.6353C60.003 22.6353 60.9159 22.9777 61.5397 23.6622C62.1787 24.3469 62.4982 25.3131 62.4982 26.5606V28.2494H60.1247V26.4009C60.1247 25.4119 59.7063 24.9174 58.8696 24.9174C58.0328 24.9174 57.6144 25.4119 57.6144 26.4009V35.3241C57.6144 36.2979 58.0328 36.7847 58.8696 36.7847C59.7063 36.7847 60.1247 36.2979 60.1247 35.3241V32.8822H62.4982V35.1415C62.4982 36.3891 62.1787 37.3552 61.5397 38.0399C60.9159 38.7245 60.003 39.0669 58.8011 39.0669ZM64.0002 22.8635H66.5105V29.3676H69.2035V22.8635H71.7139V38.8387H69.2035V31.6498H66.5105V38.8387H64.0002V22.8635ZM77.2121 39.0669C75.9797 39.0669 75.0364 38.717 74.3822 38.0171C73.728 37.3172 73.4009 36.3282 73.4009 35.0503V26.6519C73.4009 25.3739 73.728 24.3849 74.3822 23.6851C75.0364 22.9852 75.9797 22.6353 77.2121 22.6353C78.4445 22.6353 79.3878 22.9852 80.042 23.6851C80.6962 24.3849 81.0233 25.3739 81.0233 26.6519V35.0503C81.0233 36.3282 80.6962 37.3172 80.042 38.0171C79.3878 38.717 78.4445 39.0669 77.2121 39.0669ZM77.2121 36.7847C78.0793 36.7847 78.5129 36.2598 78.5129 35.21V26.4921C78.5129 25.4424 78.0793 24.9174 77.2121 24.9174C76.3449 24.9174 75.9112 25.4424 75.9112 26.4921V35.21C75.9112 36.2598 76.3449 36.7847 77.2121 36.7847ZM86.3497 39.0669C85.1173 39.0669 84.174 38.717 83.5198 38.0171C82.8656 37.3172 82.5385 36.3282 82.5385 35.0503V26.6519C82.5385 25.3739 82.8656 24.3849 83.5198 23.6851C84.174 22.9852 85.1173 22.6353 86.3497 22.6353C87.5821 22.6353 88.5253 22.9852 89.1795 23.6851C89.8338 24.3849 90.1609 25.3739 90.1609 26.6519V35.0503C90.1609 36.3282 89.8338 37.3172 89.1795 38.0171C88.5253 38.717 87.5821 39.0669 86.3497 39.0669ZM86.3497 36.7847C87.2169 36.7847 87.6505 36.2598 87.6505 35.21V26.4921C87.6505 25.4424 87.2169 24.9174 86.3497 24.9174C85.4825 24.9174 85.0488 25.4424 85.0488 26.4921V35.21C85.0488 36.2598 85.4825 36.7847 86.3497 36.7847ZM91.8586 22.8635H94.369V36.5564H98.4997V38.8387H91.8586V22.8635ZM106.987 39.0669C105.755 39.0669 104.812 38.717 104.157 38.0171C103.503 37.3172 103.176 36.3282 103.176 35.0503V26.6519C103.176 25.3739 103.503 24.3849 104.157 23.6851C104.812 22.9852 105.755 22.6353 106.987 22.6353C108.219 22.6353 109.163 22.9852 109.818 23.6851C110.471 24.3849 110.798 25.3739 110.798 26.6519V35.0503C110.798 36.3282 110.471 37.3172 109.818 38.0171C109.163 38.717 108.219 39.0669 106.987 39.0669ZM106.987 36.7847C107.855 36.7847 108.288 36.2598 108.288 35.21V26.4921C108.288 25.4424 107.855 24.9174 106.987 24.9174C106.12 24.9174 105.686 25.4424 105.686 26.4921V35.21C105.686 36.2598 106.12 36.7847 106.987 36.7847ZM112.496 22.8635H119.138V25.1456H115.007V29.5958H118.248V31.878H115.007V38.8387H112.496V22.8635ZM46.7724 43.3777H53.6189V45.6598H49.2829V49.8818H52.7289V52.164H49.2829V57.0706H53.6189V59.3528H46.7724V43.3777ZM58.6005 59.5811C57.3986 59.5811 56.4781 59.2387 55.8391 58.5541C55.2153 57.8694 54.9034 56.9033 54.9034 55.6557V47.0748C54.9034 45.8273 55.2153 44.8611 55.8391 44.1764C56.4781 43.4918 57.3986 43.1495 58.6005 43.1495C59.8025 43.1495 60.7154 43.4918 61.3391 44.1764C61.9782 44.8611 62.2976 45.8273 62.2976 47.0748V48.7636H59.9242V46.915C59.9242 45.9261 59.5058 45.4316 58.669 45.4316C57.8322 45.4316 57.4138 45.9261 57.4138 46.915V55.8383C57.4138 56.8121 57.8322 57.2989 58.669 57.2989C59.5058 57.2989 59.9242 56.8121 59.9242 55.8383V53.3964H62.2976V55.6557C62.2976 56.9033 61.9782 57.8694 61.3391 58.5541C60.7154 59.2387 59.8025 59.5811 58.6005 59.5811ZM67.4728 59.5811C66.2404 59.5811 65.2972 59.2311 64.6429 58.5313C63.9887 57.8314 63.6616 56.8424 63.6616 55.5645V47.1661C63.6616 45.8881 63.9887 44.8991 64.6429 44.1993C65.2972 43.4994 66.2404 43.1495 67.4728 43.1495C68.7052 43.1495 69.6484 43.4994 70.3026 44.1993C70.9569 44.8991 71.284 45.8881 71.284 47.1661V55.5645C71.284 56.8424 70.9569 57.8314 70.3026 58.5313C69.6484 59.2311 68.7052 59.5811 67.4728 59.5811ZM67.4728 57.2989C68.34 57.2989 68.7736 56.774 68.7736 55.7242V47.0063C68.7736 45.9565 68.34 45.4316 67.4728 45.4316C66.6056 45.4316 66.1719 45.9565 66.1719 47.0063V55.7242C66.1719 56.774 66.6056 57.2989 67.4728 57.2989ZM72.9818 43.3777H76.1311L78.5731 52.9399H78.6187V43.3777H80.8552V59.3528H78.2764L75.2639 47.691H75.2183V59.3528H72.9818V43.3777ZM86.3497 59.5811C85.1173 59.5811 84.174 59.2311 83.5198 58.5313C82.8656 57.8314 82.5385 56.8424 82.5385 55.5645V47.1661C82.5385 45.8881 82.8656 44.8991 83.5198 44.1993C84.174 43.4994 85.1173 43.1495 86.3497 43.1495C87.5821 43.1495 88.5253 43.4994 89.1795 44.1993C89.8338 44.8991 90.1609 45.8881 90.1609 47.1661V55.5645C90.1609 56.8424 89.8338 57.8314 89.1795 58.5313C88.5253 59.2311 87.5821 59.5811 86.3497 59.5811ZM86.3497 57.2989C87.2169 57.2989 87.6505 56.774 87.6505 55.7242V47.0063C87.6505 45.9565 87.2169 45.4316 86.3497 45.4316C85.4825 45.4316 85.0488 45.9565 85.0488 47.0063V55.7242C85.0488 56.774 85.4825 57.2989 86.3497 57.2989ZM91.8586 43.3777H95.4416L97.0392 54.8113H97.0848L98.6823 43.3777H102.265V59.3528H99.8918V47.2574H99.8462L98.0205 59.3528H95.9209L94.0952 47.2574H94.0495V59.3528H91.8586V43.3777ZM104.139 43.3777H106.649V59.3528H104.139V43.3777ZM112.067 59.5811C110.865 59.5811 109.944 59.2387 109.305 58.5541C108.681 57.8694 108.37 56.9033 108.37 55.6557V47.0748C108.37 45.8273 108.681 44.8611 109.305 44.1764C109.944 43.4918 110.865 43.1495 112.067 43.1495C113.269 43.1495 114.181 43.4918 114.805 44.1764C115.444 44.8611 115.763 45.8273 115.763 47.0748V48.7636H113.39V46.915C113.39 45.9261 112.972 45.4316 112.135 45.4316C111.298 45.4316 110.88 45.9261 110.88 46.915V55.8383C110.88 56.8121 111.298 57.2989 112.135 57.2989C112.972 57.2989 113.39 56.8121 113.39 55.8383V53.3964H115.763V55.6557C115.763 56.9033 115.444 57.8694 114.805 58.5541C114.181 59.2387 113.269 59.5811 112.067 59.5811ZM120.574 59.5811C119.357 59.5811 118.436 59.2387 117.812 58.5541C117.189 57.8542 116.877 56.8577 116.877 55.5645V54.6516H119.25V55.747C119.25 56.7816 119.684 57.2989 120.551 57.2989C120.976 57.2989 121.296 57.1772 121.51 56.9338C121.737 56.6751 121.851 56.2643 121.851 55.7014C121.851 55.0319 121.7 54.4462 121.395 53.9441C121.091 53.4268 120.528 52.8106 119.706 52.0955C118.672 51.1826 117.95 50.3611 117.538 49.6308C117.128 48.8853 116.922 48.0486 116.922 47.1204C116.922 45.8576 117.241 44.8839 117.881 44.1993C118.52 43.4994 119.447 43.1495 120.664 43.1495C121.866 43.1495 122.772 43.4994 123.38 44.1993C124.004 44.8839 124.316 45.8729 124.316 47.1661V47.8279H121.943V47.0063C121.943 46.4586 121.837 46.0631 121.624 45.8196C121.41 45.561 121.098 45.4316 120.688 45.4316C119.851 45.4316 119.433 45.9414 119.433 46.9607C119.433 47.5388 119.584 48.0789 119.889 48.581C120.208 49.0831 120.779 49.6917 121.6 50.4067C122.651 51.3196 123.373 52.1488 123.768 52.8943C124.165 53.6399 124.362 54.5147 124.362 55.5188C124.362 56.8272 124.035 57.8314 123.38 58.5313C122.742 59.2311 121.806 59.5811 120.574 59.5811Z" fill="#1A0E15"/>
</svg>
