<svg width="20" height="15" viewBox="0 0 20 15" fill="none" xmlns="http://www.w3.org/2000/svg">
<path id="Vector" d="M11.7989 13.756C11.5464 13.5036 11.4253 13.1986 11.4354 12.841C11.4455 12.4834 11.5771 12.1784 11.8304 11.926L15.3958 8.36066L1.32361 8.36066C0.966017 8.36066 0.666063 8.2395 0.423744 7.99718C0.181425 7.75486 0.0606864 7.45533 0.0615278 7.09858C0.0615278 6.74099 0.182687 6.44104 0.425006 6.19872C0.667325 5.9564 0.966858 5.83566 1.32361 5.83651L15.3958 5.83651L11.7989 2.23958C11.5464 1.98717 11.4202 1.68721 11.4202 1.33972C11.4202 0.99223 11.5464 0.692697 11.7989 0.441123C12.0513 0.188707 12.3512 0.0625 12.6987 0.0625C13.0462 0.0625 13.3457 0.188707 13.5973 0.441123L19.3713 6.21513C19.4975 6.34134 19.5871 6.47806 19.6401 6.6253C19.6931 6.77255 19.7192 6.93031 19.7184 7.09858C19.7184 7.26686 19.6919 7.42462 19.6389 7.57186C19.5859 7.7191 19.4967 7.85583 19.3713 7.98204L13.5658 13.7876C13.3344 14.019 13.0454 14.1347 12.6987 14.1347C12.3521 14.1347 12.0521 14.0085 11.7989 13.756Z" fill="#FFFDFE"/>
</svg>
