<svg width="20" height="14" viewBox="0 0 20 14" fill="none" xmlns="http://www.w3.org/2000/svg">
<path id="Vector" d="M7.87951 13.6233C8.13063 13.3722 8.25117 13.0688 8.24112 12.713C8.23108 12.3572 8.10007 12.0538 7.84812 11.8027L4.30103 8.2556L18.301 8.2556C18.6568 8.2556 18.9552 8.13507 19.1963 7.89399C19.4374 7.65291 19.5575 7.35492 19.5566 7C19.5566 6.64424 19.4361 6.34583 19.195 6.10475C18.9539 5.86368 18.6559 5.74356 18.301 5.74439L4.30103 5.74439L7.87951 2.16592C8.13063 1.9148 8.25619 1.61638 8.25619 1.27067C8.25619 0.924962 8.13063 0.626965 7.87951 0.376681C7.62838 0.12556 7.32997 0 6.98426 0C6.63855 0 6.34055 0.12556 6.09027 0.376681L0.345875 6.12108C0.220314 6.24664 0.131165 6.38266 0.0784302 6.52915C0.0256939 6.67563 -0.000255585 6.83259 0.000581741 7C0.000581741 7.16741 0.0269508 7.32436 0.0796871 7.47085C0.132421 7.61734 0.221151 7.75336 0.345875 7.87892L6.12166 13.6547C6.35185 13.8849 6.63939 14 6.98426 14C7.32913 14 7.62755 13.8744 7.87951 13.6233Z" fill="#7F7E7E"/>
</svg>
