<svg width="16" height="17" viewBox="0 0 16 17" fill="none" xmlns="http://www.w3.org/2000/svg">
<path id="Vector" d="M14.4545 16.2496L9.36364 11.1515C8.90909 11.5156 8.38636 11.8039 7.79545 12.0164C7.20455 12.2288 6.57576 12.335 5.90909 12.335C4.25758 12.335 2.86 11.7621 1.71636 10.6162C0.572727 9.47032 0.000606061 8.07075 0 6.4175C0 4.76363 0.572121 3.36407 1.71636 2.2188C2.86061 1.07354 4.25818 0.500607 5.90909 0.5C7.56061 0.5 8.95818 1.07294 10.1018 2.2188C11.2455 3.36468 11.8176 4.76424 11.8182 6.4175C11.8182 7.08511 11.7121 7.71479 11.5 8.30654C11.2879 8.89829 11 9.42176 10.6364 9.87696L15.75 14.9979C15.9167 15.1648 16 15.3696 16 15.6124C16 15.8551 15.9091 16.0676 15.7273 16.2496C15.5606 16.4165 15.3485 16.5 15.0909 16.5C14.8333 16.5 14.6212 16.4165 14.4545 16.2496ZM5.90909 10.5142C7.04545 10.5142 8.01151 10.1158 8.80727 9.31889C9.60303 8.522 10.0006 7.55487 10 6.4175C10 5.27952 9.60212 4.31208 8.80636 3.51519C8.01061 2.7183 7.04485 2.32016 5.90909 2.32077C4.77273 2.32077 3.80667 2.71921 3.01091 3.5161C2.21515 4.31299 1.81758 5.28012 1.81818 6.4175C1.81818 7.55548 2.21606 8.52291 3.01182 9.3198C3.80758 10.1167 4.77333 10.5148 5.90909 10.5142Z" fill="#7F7E7E"/>
</svg>
