<svg width="20" height="14" viewBox="0 0 20 14" fill="none" xmlns="http://www.w3.org/2000/svg">
<path id="Vector" d="M12.1215 13.6233C11.8703 13.3722 11.7498 13.0688 11.7599 12.713C11.7699 12.3572 11.9009 12.0538 12.1529 11.8027L15.6999 8.2556L1.69995 8.2556C1.34419 8.2556 1.04578 8.13507 0.804699 7.89399C0.563623 7.65291 0.443503 7.35492 0.44434 7C0.44434 6.64424 0.564879 6.34583 0.805955 6.10475C1.04703 5.86368 1.34503 5.74356 1.69995 5.74439L15.6999 5.74439L12.1215 2.16592C11.8703 1.9148 11.7448 1.61638 11.7448 1.27067C11.7448 0.924962 11.8703 0.626965 12.1215 0.376681C12.3726 0.12556 12.671 0 13.0167 0C13.3624 0 13.6604 0.12556 13.9107 0.376681L19.6551 6.12108C19.7807 6.24664 19.8698 6.38266 19.9225 6.52915C19.9753 6.67563 20.0012 6.83259 20.0004 7C20.0004 7.16741 19.974 7.32436 19.9213 7.47085C19.8686 7.61734 19.7798 7.75336 19.6551 7.87892L13.8793 13.6547C13.6491 13.8849 13.3616 14 13.0167 14C12.6718 14 12.3734 13.8744 12.1215 13.6233Z" fill="#551D3B"/>
</svg>
